<?xml version="1.0" standalone="no"?>
<!DOCTYPE svg PUBLIC "-//W3C//DTD SVG 20010904//EN"
 "http://www.w3.org/TR/2001/REC-SVG-20010904/DTD/svg10.dtd">
<svg version="1.0" xmlns="http://www.w3.org/2000/svg"
 width="1024.000000pt" height="1024.000000pt" viewBox="0 0 1024.000000 1024.000000"
 preserveAspectRatio="xMidYMid meet">

<g transform="translate(0.000000,1024.000000) scale(0.100000,-0.100000)"
fill="#000000" stroke="none">
<path d="M2220 7980 c-180 -5 -235 -10 -275 -24 -168 -60 -291 -186 -364 -374
l-26 -67 -5 -2320 c-3 -1276 -2 -2349 2 -2385 15 -131 118 -286 249 -376 101
-68 176 -93 326 -105 184 -15 6121 -6 6188 10 28 6 88 29 134 51 142 68 244
195 282 350 12 46 14 455 14 2415 0 2263 -1 2362 -18 2420 -58 188 -196 327
-387 392 -53 17 -164 18 -2975 19 -1606 0 -3021 -2 -3145 -6z m344 -270 c28
-10 34 -38 14 -58 -7 -7 -41 -12 -85 -12 -63 0 -74 3 -83 21 -22 41 -2 55 87
58 23 0 53 -3 67 -9z m264 -6 c46 -32 17 -74 -52 -74 -38 0 -66 21 -66 51 0
36 78 51 118 23z m303 -3 c20 -16 22 -23 13 -38 -15 -25 -75 -39 -121 -27 -31
7 -39 14 -41 37 -3 21 2 29 20 36 41 17 104 13 129 -8z m4763 9 c32 -12 36
-54 7 -70 -25 -13 -102 -13 -135 0 -37 14 -36 55 2 68 36 14 94 14 126 2z
m-5620 -6 c21 -8 21 -50 0 -58 -34 -13 -120 -17 -146 -7 -20 7 -28 18 -28 35
0 13 6 27 13 29 18 8 143 8 161 1z m1180 0 c26 -10 20 -53 -10 -64 -58 -22
-168 -7 -180 25 -13 32 15 45 96 45 43 0 85 -3 94 -6z m304 -23 c5 -33 -21
-51 -74 -51 -78 0 -121 32 -87 65 12 12 32 15 87 13 67 -3 71 -4 74 -27z m287
15 c38 -27 -8 -66 -80 -66 -72 0 -118 39 -80 66 11 8 44 14 80 14 36 0 69 -6
80 -14z m286 4 c10 -6 19 -19 19 -30 0 -26 -29 -40 -85 -40 -25 0 -55 5 -66
10 -24 13 -25 46 -1 59 22 14 108 14 133 1z m2176 -12 c17 -14 16 -28 -4 -50
-21 -24 -124 -26 -147 -2 -23 22 -20 53 7 64 27 12 125 4 144 -12z m341 10
c16 -16 15 -33 -4 -52 -19 -19 -134 -22 -152 -4 -13 13 -16 50 -5 61 12 12
148 8 161 -5z m233 -4 c29 -36 -38 -76 -88 -52 -36 17 -42 45 -11 57 36 15 84
13 99 -5z m239 1 c19 -22 8 -48 -25 -57 -67 -19 -136 20 -99 56 20 21 107 22
124 1z m284 5 c30 -11 33 -26 9 -52 -21 -23 -118 -25 -151 -2 -47 33 -16 62
70 63 26 1 58 -3 72 -9z m586 -3 c14 -7 25 -21 25 -32 0 -30 -42 -47 -103 -41
-29 3 -60 10 -68 17 -17 14 -18 41 -2 57 16 16 116 15 148 -1z m-2272 -34 c3
-17 -4 -26 -24 -33 -59 -23 -116 3 -101 44 6 14 18 16 64 14 51 -3 58 -6 61
-25z m256 21 c19 -7 21 -45 4 -62 -15 -15 -92 -16 -119 -2 -24 13 -25 46 -1
59 19 11 91 14 116 5z m-4162 -21 c26 -24 23 -38 -19 -72 -54 -45 -133 -54
-133 -15 0 14 107 104 124 104 5 0 18 -7 28 -17z m2666 -9 c19 -5 14 -42 -7
-54 -24 -12 -101 -13 -119 -1 -22 14 -10 54 18 62 23 5 79 2 108 -7z m967 -29
c0 -28 -2 -30 -40 -30 -38 0 -40 2 -43 33 l-3 33 43 -3 c40 -3 43 -5 43 -33z
m2741 6 c66 -48 79 -67 66 -96 -6 -14 -17 -25 -23 -25 -13 0 -115 76 -125 92
-8 13 16 58 31 58 7 0 30 -13 51 -29z m-2982 13 c19 -7 21 -35 4 -52 -8 -8
-46 -12 -103 -12 -90 0 -115 8 -115 37 0 8 10 18 23 23 25 10 167 13 191 4z
m-330 -26 c8 -13 8 -23 0 -35 -16 -26 -198 -32 -225 -7 -22 20 -24 35 -7 52 9
9 44 12 117 10 86 -3 106 -6 115 -20z m-3245 -127 c16 -16 18 -26 10 -67 -11
-63 -42 -91 -73 -70 -25 17 -25 64 -2 120 17 40 37 45 65 17z m6721 -63 c14
-23 20 -47 18 -78 -3 -41 -5 -45 -28 -45 -21 0 -28 8 -44 52 -11 31 -16 63
-12 78 9 36 42 32 66 -7z m-6766 -184 c31 -30 16 -144 -19 -144 -35 0 -50 114
-19 144 8 9 17 16 19 16 2 0 11 -7 19 -16z m6784 -46 c7 -7 12 -31 12 -55 0
-32 -5 -45 -20 -53 -15 -8 -21 -6 -30 9 -20 39 -8 111 20 111 3 0 11 -5 18
-12z m-1878 -46 c17 -21 18 -36 13 -162 l-6 -139 486 -3 c319 -2 490 -7 496
-13 7 -7 8 -45 4 -110 -6 -80 -9 -92 -14 -60 -6 37 -6 38 -8 8 -1 -26 -4 -31
-18 -26 -11 4 -14 3 -9 -5 4 -7 1 -12 -7 -12 -7 0 -29 -13 -47 -30 -32 -28
-44 -34 -63 -31 -5 1 -6 -3 -3 -8 4 -5 2 -12 -3 -15 -5 -4 -13 3 -16 14 -11
33 -30 17 -27 -22 2 -26 -1 -35 -12 -35 -9 0 -16 4 -16 9 0 4 -5 8 -11 8 -8 0
-8 -4 0 -14 19 -23 0 -52 -31 -47 -5 0 -8 -3 -8 -9 0 -5 -7 -10 -15 -10 -8 0
-15 -9 -15 -21 0 -11 -4 -17 -10 -14 -5 3 -7 0 -4 -8 3 -8 -2 -20 -11 -27 -8
-7 -15 -21 -15 -31 0 -11 -5 -19 -11 -19 -6 0 -9 -7 -6 -15 7 -17 -10 -30 -38
-28 -14 1 -15 0 -3 -3 9 -3 19 -12 22 -20 3 -8 1 -12 -4 -9 -13 8 -52 -14 -45
-26 4 -5 -4 -10 -17 -10 -17 -1 -13 -4 12 -10 l35 -8 -41 2 c-29 2 -40 -1 -37
-10 3 -6 11 -9 19 -6 8 3 14 0 14 -7 0 -9 -10 -11 -32 -6 -19 3 -27 2 -20 -2
10 -7 6 -15 -14 -35 -14 -14 -23 -30 -20 -35 3 -6 -1 -12 -9 -16 -8 -3 -15
-12 -15 -21 0 -9 -9 -15 -21 -15 -18 0 -19 -2 -9 -15 9 -11 9 -15 1 -15 -7 0
-9 -5 -6 -10 3 -6 0 -13 -8 -16 -15 -5 -27 -36 -33 -84 -2 -13 -13 -32 -25
-41 -12 -9 -18 -18 -13 -21 5 -3 3 -3 -3 -2 -18 5 -44 -7 -38 -16 3 -5 1 -20
-5 -35 -9 -25 -14 -27 -48 -21 -20 3 -30 2 -21 -2 11 -5 13 -14 8 -32 -4 -16
-7 -19 -8 -7 -1 9 -6 17 -12 17 -6 0 -9 -6 -6 -14 3 -8 0 -17 -8 -20 -8 -3
-16 0 -18 7 -2 7 -4 0 -3 -14 0 -14 6 -26 13 -26 7 0 9 5 6 11 -3 6 -2 7 3 3
13 -12 11 -66 -3 -71 -8 -3 -10 1 -6 11 4 10 2 14 -5 9 -6 -3 -14 3 -18 16 -6
21 -93 149 -117 173 -13 13 -3 -3 57 -94 245 -371 231 -858 -43 -1454 -91
-197 -243 -412 -410 -577 -145 -143 -266 -230 -446 -319 -281 -139 -468 -181
-805 -181 -275 0 -489 37 -653 112 -98 45 -165 131 -155 199 4 24 -1 30 -36
46 -146 65 -333 236 -496 455 -115 154 -116 155 -86 88 50 -111 60 -130 69
-130 4 0 6 -4 2 -9 -3 -5 6 -31 20 -58 35 -65 87 -195 80 -201 -2 -3 0 -11 6
-19 15 -18 -11 -17 -108 3 -153 31 -167 44 -370 328 -264 370 -365 565 -500
961 -87 256 -160 594 -217 1010 -34 249 -45 376 -53 622 -5 169 -3 215 7 228
12 14 61 16 447 14 239 -1 435 0 437 2 2 2 -2 40 -10 84 -19 115 -18 189 3
206 13 11 147 15 727 21 391 4 770 9 841 11 72 1 474 3 893 2 l764 0 18 -23z
m-4900 -172 c16 -30 8 -111 -12 -123 -28 -18 -48 9 -48 64 0 67 37 103 60 59z
m6786 -34 c9 -36 1 -60 -19 -64 -24 -5 -47 16 -47 42 0 46 55 65 66 22z m-909
-403 c-2 -16 -4 -3 -4 27 0 30 2 43 4 28 2 -16 2 -40 0 -55z m-5879 45 c18
-18 15 -77 -4 -85 -38 -14 -66 35 -44 76 12 24 30 27 48 9z m6780 -10 c18 -18
15 -87 -3 -94 -36 -14 -58 42 -35 87 12 22 21 24 38 7z m-1081 -65 c-3 -10 -5
-4 -5 12 0 17 2 24 5 18 2 -7 2 -21 0 -30z m1099 -280 c7 -27 -4 -54 -24 -61
-16 -5 -35 36 -28 64 9 34 44 32 52 -3z m-6796 -42 c16 -31 13 -127 -5 -145
-31 -31 -55 1 -55 76 0 74 35 115 60 69z m6808 -242 c2 -70 0 -88 -14 -100
-25 -21 -44 13 -44 82 0 72 14 112 38 107 14 -3 17 -17 20 -89z m-6810 -21
c16 -16 16 -110 0 -126 -17 -17 -45 -15 -52 4 -9 24 -7 80 4 108 10 28 29 33
48 14z m6791 -242 c18 -22 10 -70 -13 -74 -32 -7 -50 50 -24 76 16 16 23 15
37 -2z m-6789 -15 c14 -28 12 -74 -4 -97 -21 -28 -50 -7 -54 39 -5 64 34 103
58 58z m6798 -322 c2 -60 -1 -79 -13 -89 -27 -22 -40 4 -39 74 1 76 8 99 31
94 15 -3 18 -16 21 -79z m-6800 59 c18 -18 15 -113 -4 -128 -38 -32 -70 82
-34 125 15 18 22 19 38 3z m7 -273 c0 -41 -3 -50 -19 -53 -22 -5 -36 14 -36
50 0 42 10 59 34 56 18 -3 21 -10 21 -53z m6783 3 c18 -18 16 -142 -3 -158
-25 -21 -35 -1 -35 70 0 93 10 116 38 88z m-6784 -184 c16 -41 3 -94 -23 -94
-37 0 -53 48 -31 91 13 23 46 25 54 3z m6796 -163 c0 -49 -13 -69 -34 -52 -19
16 -21 82 -4 99 19 19 38 -5 38 -47z m-6802 -33 c15 -15 16 -175 2 -212 -11
-29 -44 -35 -54 -10 -3 9 -6 59 -6 113 0 94 8 121 35 121 6 0 16 -5 23 -12z
m6792 -157 c14 -28 12 -64 -5 -87 -15 -19 -15 -19 -30 0 -24 31 -13 106 15
106 5 0 14 -9 20 -19z m-6786 -167 c32 -31 15 -224 -19 -224 -29 0 -40 32 -38
117 3 121 17 148 57 107z m6786 -60 c26 -67 1 -199 -31 -167 -15 15 -24 109
-15 158 8 42 32 47 46 9z m-6782 -286 c20 -20 15 -122 -7 -149 -16 -20 -21
-21 -35 -10 -12 10 -16 31 -16 80 0 64 10 91 35 91 6 0 16 -5 23 -12z m6781
-2 c7 -9 11 -40 9 -78 -3 -56 -6 -63 -24 -66 -18 -3 -23 4 -28 32 -6 33 0 99
11 119 6 11 19 8 32 -7z m5 -269 c8 -29 8 -91 0 -111 -3 -9 -14 -16 -24 -16
-10 0 -21 7 -24 16 -10 25 -7 103 4 124 13 24 36 16 44 -13z m-6780 -23 c9
-24 7 -80 -4 -109 -7 -20 -16 -26 -33 -23 -19 3 -22 10 -25 55 -2 29 2 62 8
73 13 24 45 27 54 4z m1894 -176 c6 -6 12 -7 12 -3 0 4 10 -5 22 -21 65 -84
271 -295 373 -381 106 -91 111 -96 55 -57 -30 20 -73 54 -95 74 -83 75 -143
120 -157 115 -8 -3 -74 53 -168 144 l-155 149 50 -5 c28 -3 56 -9 63 -15z
m4887 -117 c0 -63 -13 -88 -39 -78 -12 5 -16 22 -16 75 0 75 14 103 39 77 10
-10 15 -35 16 -74z m-6791 63 c12 -11 16 -36 16 -98 0 -87 -14 -124 -42 -113
-30 11 -34 156 -6 210 11 21 13 21 32 1z m6784 -256 c12 -12 17 -143 6 -172
-3 -9 -14 -16 -24 -16 -24 0 -30 19 -30 104 0 65 10 96 30 96 3 0 11 -5 18
-12z m-6784 -54 c3 -9 6 -42 6 -74 0 -106 -54 -118 -66 -14 -7 59 8 104 35
104 10 0 22 -7 25 -16z m2500 -166 c-6 -9 54 -28 71 -22 8 3 79 1 157 -5 207
-17 282 -19 586 -21 149 -1 272 -5 272 -9 0 -5 19 -11 41 -14 29 -4 50 -15 69
-36 15 -16 30 -28 33 -25 2 3 7 -2 11 -11 3 -9 2 -14 -3 -11 -5 3 -14 -1 -21
-9 -11 -13 -10 -14 2 -10 9 4 15 0 15 -10 0 -8 -6 -15 -14 -15 -7 0 -13 -5
-13 -11 0 -6 -7 -8 -16 -5 -14 6 -15 4 -4 -9 9 -11 15 -13 20 -5 4 7 9 11 11
10 4 -2 57 18 70 26 5 3 9 3 9 0 0 -12 -123 -67 -137 -62 -8 3 -12 2 -9 -3 7
-10 -114 -63 -241 -106 l-82 -27 -105 31 c-173 51 -434 167 -642 287 -118 67
-133 79 -100 79 13 0 22 -3 20 -7z m4282 -112 c11 -44 1 -81 -23 -84 -21 -3
-23 1 -23 46 0 27 3 52 7 55 14 14 33 6 39 -17z m-6832 8 c20 -8 22 -73 2 -99
-22 -30 -46 -3 -46 50 0 54 8 63 44 49z m100 -163 c21 -23 24 -74 6 -96 -30
-36 -70 -3 -70 59 0 23 3 46 7 49 12 13 40 7 57 -12z m6649 -34 c11 -35 -10
-81 -41 -85 -20 -3 -22 1 -22 42 0 70 43 101 63 43z m-6522 -129 c23 -36 -9
-73 -55 -64 -47 10 -62 29 -47 62 11 24 16 26 53 21 22 -3 45 -11 49 -19z
m6397 -15 c2 -23 -3 -35 -20 -47 -37 -26 -58 -21 -58 15 0 47 17 71 48 67 22
-2 28 -9 30 -35z m-6294 -25 c14 -23 -3 -52 -33 -56 -42 -6 -67 38 -39 66 17
17 58 11 72 -10z m299 0 c21 -32 -8 -48 -89 -48 -64 0 -75 3 -84 21 -9 15 -8
24 1 35 18 22 158 16 172 -8z m488 12 c28 0 42 -20 33 -45 -5 -12 -25 -15 -98
-15 -98 0 -120 7 -114 36 4 24 41 34 103 29 28 -3 62 -5 76 -5z m254 0 c20 -7
26 -16 23 -33 -3 -20 -9 -22 -74 -25 -74 -3 -103 10 -91 42 9 23 98 33 142 16z
m337 -13 c3 -6 2 -19 -3 -29 -8 -14 -22 -18 -67 -18 -81 0 -102 8 -102 36 0
18 6 24 33 27 47 7 131 -3 139 -16z m-856 1 c11 -18 -27 -39 -58 -32 -17 3
-28 1 -28 -5 0 -16 -26 -13 -40 4 -10 12 -10 18 0 30 15 18 115 21 126 3z
m1192 -12 c6 -28 -15 -36 -98 -36 -132 0 -172 14 -138 48 9 9 46 12 123 10 98
-3 110 -5 113 -22z m182 9 c21 -26 4 -45 -40 -45 -27 0 -43 5 -46 15 -9 22 14
45 46 45 15 0 33 -7 40 -15z m218 -17 c3 -27 2 -28 -42 -28 -53 0 -76 8 -76
26 0 21 31 34 75 31 35 -2 40 -5 43 -29z m2182 17 c23 -28 4 -45 -49 -45 -52
0 -73 19 -50 46 15 19 83 18 99 -1z m225 -15 c0 -23 -4 -25 -56 -28 -60 -3
-85 11 -73 42 5 14 18 16 68 14 58 -3 61 -4 61 -28z m213 21 c8 -5 12 -17 10
-27 -2 -15 -14 -20 -54 -22 -58 -3 -87 16 -64 43 14 16 86 20 108 6z m226 -7
c11 -28 -13 -44 -66 -44 -50 0 -67 13 -54 45 8 22 112 21 120 -1z m261 -14 c0
-24 -3 -25 -65 -28 -81 -4 -110 3 -110 27 0 29 10 32 95 29 78 -3 80 -4 80
-28z m180 0 c0 -22 -5 -25 -43 -28 -31 -2 -44 1 -48 12 -13 33 4 47 48 44 38
-3 43 -6 43 -28z m270 0 c0 -25 -1 -25 -85 -25 l-85 0 -3 28 -3 28 88 -3 c86
-3 88 -3 88 -28z m280 9 c10 -30 -9 -39 -88 -39 -70 0 -87 10 -73 45 4 11 23
15 80 15 67 0 75 -2 81 -21z m231 6 c11 -27 -16 -45 -68 -45 -50 0 -67 13 -54
45 8 21 114 21 122 0z m-3856 -20 c0 -23 -4 -25 -42 -25 -51 0 -73 12 -65 34
5 12 20 16 57 16 47 0 50 -2 50 -25z m1555 0 c0 -17 -7 -20 -45 -20 -39 0 -45
3 -48 23 -3 22 -1 23 45 20 40 -3 48 -6 48 -23z m212 9 c8 -21 -14 -34 -57
-34 -43 0 -65 13 -57 34 5 12 20 16 57 16 37 0 52 -4 57 -16z"/>
<path d="M5135 6810 c-19 -8 -19 -9 3 -9 12 -1 22 4 22 9 0 6 -1 10 -2 9 -2 0
-12 -4 -23 -9z"/>
<path d="M3336 6566 c26 -67 108 -202 143 -235 25 -24 27 -24 169 -17 146 7
303 -1 282 -14 -9 -6 -7 -11 6 -19 11 -6 16 -11 12 -11 -5 0 1 -9 12 -20 11
-11 20 -27 20 -35 0 -8 5 -15 11 -15 5 0 7 -5 4 -10 -3 -6 1 -17 9 -26 17 -16
21 -43 16 -109 -5 -68 -6 -74 -13 -81 -4 -4 -7 -16 -7 -26 0 -10 -5 -18 -12
-18 -6 0 -9 -3 -6 -6 4 -3 0 -17 -7 -31 -8 -15 -12 -30 -9 -35 3 -4 -40 -8
-95 -8 l-101 0 0 -650 0 -650 33 0 c17 0 48 3 67 6 l35 6 2 151 c2 84 7 204
13 267 5 63 13 208 17 323 l6 207 143 0 144 0 -5 -62 c-9 -140 -17 -396 -18
-618 -1 -143 -6 -238 -12 -242 -6 -5 -4 -8 5 -9 41 -3 -44 -17 -109 -18 l-74
-1 7 -114 c10 -173 41 -259 124 -348 97 -104 269 -192 438 -224 122 -23 138
-30 184 -80 36 -39 40 -49 40 -97 0 -98 -64 -187 -137 -187 -10 0 -24 -4 -32
-9 -28 -18 61 -26 274 -25 215 0 338 12 480 44 154 36 318 103 466 191 30 17
59 32 66 32 7 0 11 3 9 6 -2 3 14 17 35 31 21 13 39 28 39 32 0 4 7 8 15 8 8
0 15 5 15 12 0 6 3 9 6 5 4 -3 26 7 50 23 23 17 47 30 52 30 17 0 156 154 213
235 113 163 168 271 230 455 145 427 93 780 -155 1038 -120 126 -267 207 -465
257 -134 34 -251 45 -498 45 l-213 0 0 -88 0 -88 68 -22 c268 -86 461 -350
462 -633 1 -285 -180 -543 -455 -650 l-70 -27 -5 -80 c-4 -61 -10 -85 -25
-102 -61 -69 -203 -65 -251 8 -10 15 -19 56 -23 99 l-6 74 -72 29 c-216 87
-373 260 -429 470 -25 96 -22 255 6 345 39 125 86 203 179 295 86 85 173 141
266 170 67 21 65 15 65 209 1 123 4 181 13 192 21 27 54 39 106 39 l51 0 0
122 0 121 178 -7 c97 -4 197 -12 222 -17 25 -5 52 -11 60 -12 30 -4 98 -110
115 -178 l6 -26 167 -6 c231 -9 397 -50 567 -140 36 -20 61 -29 55 -22 -8 10
-4 14 15 19 34 9 116 68 135 98 27 43 40 92 27 100 -7 4 -60 8 -119 8 l-108 0
0 135 0 135 -29 32 -29 33 -1524 5 c-838 3 -1529 9 -1535 13 -9 5 -11 3 -7 -7z"/>
<path d="M3364 5808 c-36 -43 -105 -191 -139 -298 -45 -145 -60 -274 -47 -420
17 -187 75 -383 145 -487 l32 -48 103 -3 102 -3 0 646 0 645 -84 0 c-83 0 -85
-1 -112 -32z"/>
<path d="M6915 5780 c-3 -5 1 -10 10 -10 9 0 13 5 10 10 -3 6 -8 10 -10 10 -2
0 -7 -4 -10 -10z"/>
<path d="M5071 5506 c-64 -35 -68 -132 -9 -189 10 -10 16 -22 13 -28 -4 -5
-57 -9 -119 -9 -74 0 -116 -4 -124 -12 -17 -17 -17 -499 0 -516 13 -13 87 -16
126 -6 18 5 22 13 22 49 0 23 3 57 6 74 6 26 11 31 35 31 l29 0 0 -145 c0
-167 -1 -165 98 -165 70 0 72 3 72 117 0 62 -3 75 -25 101 -14 17 -25 42 -25
56 l0 26 93 0 c92 0 93 0 103 27 9 25 13 27 57 24 81 -5 123 39 92 98 -17 35
-40 43 -105 39 l-45 -3 -5 100 -5 100 -87 5 c-48 3 -90 9 -94 13 -5 4 4 18 19
30 103 85 -5 248 -122 183z"/>
</g>
</svg>
